<svg xmlns="http://www.w3.org/2000/svg" width="43.997" height="35.712" viewBox="0 0 43.997 35.712"><g transform="translate(0.582 0.559)"><path d="M155.33,254.392a3.409,3.409,0,0,0,1.35,3.629,8.169,8.169,0,0,0,5.174,1.475l-1.423,2.731a19.255,19.255,0,0,0,2.606-3.2,16.337,16.337,0,0,1-4.451-.684c-2.7-.944-2.82-3.169-2.194-5.692a15.154,15.154,0,0,1,3.6-6.531,5.843,5.843,0,0,1,4.244-2.121,3.222,3.222,0,0,1,.506-2.878,3.058,3.058,0,0,1,3.655-.888,3.286,3.286,0,0,1,1.874,2.027l-3.386.039,3.523.56a4.229,4.229,0,0,1-.1,3.52c-.536.84-1.589,1.145-3.248.187-.01.032-.553.557.629,1.55a18.893,18.893,0,0,0,5.579,2.691,7.922,7.922,0,0,1,.467-.878c.476-.742.844-.58,1.583-.247a17.121,17.121,0,0,1,5.995,5.087,3.727,3.727,0,0,1,.815,3.167,3.043,3.043,0,0,1-2.09,1.72l.842,1.829a6.389,6.389,0,0,1,4.73-.044c-.24.529-.479.961-.479.961a6.309,6.309,0,0,1,3.859,7.707,6.155,6.155,0,0,1-7.355,4.326,6.283,6.283,0,0,1-4.622-7.258l-1.2-.325a7.558,7.558,0,0,1,2.848-4.267c-.2-.569-.479-1.22-.479-1.22a7.084,7.084,0,0,0-3.153,2.734c-1.077,1.765-1.2,3.761-1.7,5.31-.522,1.618-1.455,2.75-4.318,2.626-2.054-.089-5.1-.825-9.7-2.492a6.56,6.56,0,0,1-12.742.03,6.764,6.764,0,0,1,3.1-7.559,6.491,6.491,0,0,1,7.178.425,1.842,1.842,0,0,0,2.014.351c.847-.687-.412-1.108-.892-1.257a27.384,27.384,0,0,1-7.438-3.577c-1.458-1.094-2.4-2.317-2.066-3.528.3-1.078,1.342-.872,2.8-.531a12.963,12.963,0,0,0,4.065.5Zm16.53,5.874,3.595.549-5.452.671,3.954.366-4.464,1.007,3.565.275-4.433.976,3.175.366-5.961.946,5.512.336-7.578,1.221,7.279.122-7.729,1.22,6.89.733-4.913.732c2.666.58,4.2.611,5.118.254,1.116-.432,1.347-1.433,1.628-2.717a9.393,9.393,0,0,1,1.823-4.276,10.755,10.755,0,0,1,3.113-2.537,8.588,8.588,0,0,0-2.058-.347,18.79,18.79,0,0,0-3.064.1Zm-6.307,4.006a18.609,18.609,0,0,0,3.083-3.132c1.034-1.448,1.239-2.735.317-3.948a8.169,8.169,0,0,0-3.014-2.16,6.146,6.146,0,0,1,2.866-1.415,9.758,9.758,0,0,1,4.832.638c.627.193,1.07.3,1.253.1s-.178-.616-.87-1.093a13.482,13.482,0,0,0-4.65-1.906,6.916,6.916,0,0,0-4.488.367,4.5,4.5,0,0,0-2.224,2.823,21.656,21.656,0,0,1,3.671,1.326c2.119,1.053,2.924,2.328,2.254,4.175a13.428,13.428,0,0,1-3.031,4.226Zm16.4-.139a3.721,3.721,0,0,1,4.353,2.435,3.83,3.83,0,0,1-1.875,4.685,3.694,3.694,0,0,1-4.784-1.36,3.851,3.851,0,0,1,.778-5,4.28,4.28,0,0,0-.967,5.576,4.108,4.108,0,0,0,5.345,1.554,4.259,4.259,0,0,0,2.068-5.256,4.135,4.135,0,0,0-4.918-2.637Zm-26.078.841a4.061,4.061,0,0,0-5.23-.663,4.235,4.235,0,0,0-1.582,5.122,4.1,4.1,0,0,0,4.661,2.507,4.178,4.178,0,0,0,3.26-4.219,3.784,3.784,0,0,1-3.029,3.691,3.719,3.719,0,0,1-4.154-2.288,3.841,3.841,0,0,1,1.373-4.6A3.681,3.681,0,0,1,155.877,264.974Z" transform="translate(-146.343 -239.966)" fill="#7fc4fd" stroke="#2699fb" stroke-width="1" fill-rule="evenodd"/></g></svg>