<svg xmlns="http://www.w3.org/2000/svg" xmlns:xlink="http://www.w3.org/1999/xlink" width="32" height="32" viewBox="0 0 32 32"><defs><clipPath id="a"><rect width="32" height="32" fill="none"/></clipPath></defs><g clip-path="url(#a)"><rect width="32" height="32" transform="translate(0 0)" fill="none"/><path d="M13.134,18.99a5.573,5.573,0,0,0,5.583-5.583,5.744,5.744,0,0,0-5.583-5.782,5.573,5.573,0,0,0-5.583,5.583A5.884,5.884,0,0,0,13.134,18.99ZM3.763,3.838A13.252,13.252,0,0,1,22.5,22.579L13.134,31.95,3.763,22.579A13.614,13.614,0,0,1,3.763,3.838Z" transform="translate(1.975 0.05)" fill="#2699fb" fill-rule="evenodd"/></g></svg>