<svg xmlns="http://www.w3.org/2000/svg" xmlns:xlink="http://www.w3.org/1999/xlink" width="31" height="31" viewBox="0 0 31 31"><defs><clipPath id="a"><rect width="31" height="31" fill="none"/></clipPath></defs><g clip-path="url(#a)"><rect width="31" height="31" fill="none"/><path d="M3.875,9.688V27.125h23.25V9.688ZM25.188,3.875h3.875A1.83,1.83,0,0,1,31,5.813v23.25A1.83,1.83,0,0,1,29.063,31H1.938A1.83,1.83,0,0,1,0,29.063V5.813A1.83,1.83,0,0,1,1.938,3.875H5.813V1.938A1.83,1.83,0,0,1,7.75,0,1.83,1.83,0,0,1,9.688,1.938V3.875H21.313V1.938a1.938,1.938,0,0,1,3.875,0ZM23.25,23.25H19.375V19.375H23.25Zm-5.812,0H13.563V19.375h3.875Zm5.813-5.812H19.375V13.563H23.25Zm-5.812,0H13.563V13.563h3.875ZM11.625,23.25H7.75V19.375h3.875Z" fill="#2699fb" fill-rule="evenodd"/></g></svg>