<svg xmlns="http://www.w3.org/2000/svg" width="232" height="180.188" viewBox="0 0 232 180.188"><defs><style>.a,.b,.c{fill:#f1f9ff;}.a{fill-rule:evenodd;}.b{font-size:29px;}.b,.c{font-family:Montserrat-Bold, Montserrat;font-weight:700;}.c{font-size:16px;}</style></defs><g transform="translate(-56.12 -241.49)"><path class="a" d="M168.169,275c-.884,3.438.438,6.56,3.278,8.811,2.872,2.277,7.3,3.663,12.565,3.582l-3.456,6.632a46.755,46.755,0,0,0,6.33-7.78,39.678,39.678,0,0,1-10.81-1.661c-6.558-2.292-6.85-7.7-5.329-13.822a36.8,36.8,0,0,1,8.732-15.859c3.14-3.235,6.748-5.33,10.307-5.151a7.824,7.824,0,0,1,1.228-6.989,7.426,7.426,0,0,1,8.875-2.156,7.979,7.979,0,0,1,4.552,4.922l-8.222.095,8.556,1.359c1.11,2.939,1.109,6.439-.235,8.548-1.3,2.04-3.859,2.78-7.889.453-.024.078-1.343,1.353,1.528,3.765,1.966,1.652,5.9,3.837,13.549,6.536a19.233,19.233,0,0,1,1.135-2.131c1.155-1.8,2.051-1.408,3.844-.6A41.579,41.579,0,0,1,231.266,275.9c1.826,2.7,2.767,5.419,1.979,7.69-.593,1.708-2.164,3.165-5.076,4.177l2.044,4.441A15.518,15.518,0,0,1,241.7,292.1c-.582,1.284-1.164,2.334-1.164,2.334a15.32,15.32,0,0,1,9.372,18.715,14.949,14.949,0,0,1-17.862,10.5,15.258,15.258,0,0,1-11.226-17.625l-2.915-.788c.769-3.993,3.63-7.827,6.918-10.361-.485-1.383-1.164-2.963-1.164-2.963a17.2,17.2,0,0,0-7.658,6.64c-2.615,4.286-2.912,9.132-4.125,12.894-1.267,3.929-3.534,6.677-10.486,6.376-4.987-.216-12.388-2-23.56-6.052a15.931,15.931,0,0,1-30.945.072,16.425,16.425,0,0,1,7.526-18.355,15.765,15.765,0,0,1,17.433,1.032c1.858,1.4,3.988,1.586,4.892.853,2.058-1.669-1-2.691-2.166-3.052-4.8-1.484-12.813-4.744-18.063-8.686-3.541-2.657-5.824-5.626-5.018-8.567.718-2.617,3.259-2.117,6.809-1.288A31.483,31.483,0,0,0,168.169,275Zm40.144,14.263,8.73,1.333-13.24,1.63,9.6.889-10.84,2.446,8.657.667L200.457,298.6l7.711.889-14.477,2.3,13.385.815-18.4,2.964,17.678.3-18.769,2.963,16.732,1.779-11.93,1.778c6.474,1.409,10.189,1.484,12.43.616,2.711-1.05,3.271-3.481,3.954-6.6.663-3.025,1.446-6.7,4.427-10.384a26.119,26.119,0,0,1,7.559-6.161,20.857,20.857,0,0,0-5-.843,45.637,45.637,0,0,0-7.442.25ZM193,298.987a45.19,45.19,0,0,0,7.486-7.605c2.511-3.515,3.008-6.641.771-9.586-1.366-1.8-3.751-3.531-7.319-5.244a14.925,14.925,0,0,1,6.959-3.435c4.664-.891,8.948.689,11.734,1.548,1.522.468,2.6.723,3.044.239s-.432-1.5-2.112-2.654a32.741,32.741,0,0,0-11.292-4.629c-3.794-.761-7.744-.742-10.9.89a10.924,10.924,0,0,0-5.4,6.855,52.6,52.6,0,0,1,8.915,3.221c5.146,2.557,7.1,5.653,5.474,10.139-1.018,2.807-3.44,6.158-7.361,10.261Zm39.833-.337a9.037,9.037,0,0,1,10.572,5.913,9.3,9.3,0,0,1-4.553,11.375,8.971,8.971,0,0,1-11.618-3.3A9.35,9.35,0,0,1,229.12,300.5a10.393,10.393,0,0,0-2.348,13.539,9.977,9.977,0,0,0,12.98,3.774,10.342,10.342,0,0,0,5.023-12.762,10.042,10.042,0,0,0-11.945-6.4ZM169.5,300.694a9.863,9.863,0,0,0-12.7-1.611,10.284,10.284,0,0,0-3.842,12.437,9.958,9.958,0,0,0,11.319,6.088,10.145,10.145,0,0,0,7.917-10.245,9.188,9.188,0,0,1-7.356,8.963,9.032,9.032,0,0,1-10.089-5.557,9.328,9.328,0,0,1,3.335-11.177A8.939,8.939,0,0,1,169.5,300.694Z" transform="translate(-26.611 1.524)"/><text class="b" transform="translate(172.12 381.621)"><tspan x="-115.304" y="0">Riders Meeting</tspan></text><text class="c" transform="translate(79.55 417.678)"><tspan x="0" y="0">ENJOY YOUR TOURING</tspan></text></g></svg>