<svg xmlns="http://www.w3.org/2000/svg" width="232" height="177.237" viewBox="0 0 232 177.237"><defs><style>.a,.b,.c{fill:#007feb;}.a{fill-rule:evenodd;}.b{font-size:29px;}.b,.c{font-family:Montserrat-Bold, Montserrat;font-weight:700;}.c{font-size:16px;}</style></defs><g transform="translate(373.43 -140.763)"><g transform="translate(-429.55 -103.678)"><path class="a" d="M167.922,274.6c-.874,3.4.433,6.486,3.241,8.712,2.839,2.251,7.216,3.622,12.423,3.541l-3.417,6.557a46.228,46.228,0,0,0,6.258-7.692,39.229,39.229,0,0,1-10.687-1.642c-6.483-2.266-6.772-7.609-5.269-13.666a36.381,36.381,0,0,1,8.633-15.68c3.1-3.2,6.671-5.269,10.191-5.093a7.736,7.736,0,0,1,1.214-6.91,7.342,7.342,0,0,1,8.775-2.132,7.889,7.889,0,0,1,4.5,4.866l-8.129.094,8.459,1.344c1.1,2.906,1.1,6.366-.232,8.451-1.286,2.017-3.815,2.749-7.8.448-.024.077-1.328,1.338,1.511,3.722,1.944,1.633,5.829,3.793,13.4,6.462a19.02,19.02,0,0,1,1.122-2.107c1.142-1.781,2.027-1.392,3.8-.594A41.109,41.109,0,0,1,230.306,275.5c1.8,2.674,2.736,5.358,1.957,7.6-.586,1.688-2.14,3.129-5.018,4.13l2.021,4.391a15.343,15.343,0,0,1,11.356-.106c-.575,1.27-1.151,2.308-1.151,2.308a15.147,15.147,0,0,1,9.266,18.5,14.78,14.78,0,0,1-17.66,10.385,15.086,15.086,0,0,1-11.1-17.425l-2.882-.779c.761-3.948,3.588-7.739,6.839-10.244-.479-1.367-1.151-2.93-1.151-2.93a17.009,17.009,0,0,0-7.572,6.565c-2.586,4.238-2.879,9.029-4.078,12.749-1.253,3.885-3.494,6.6-10.367,6.3-4.931-.214-12.248-1.981-23.294-5.984a15.751,15.751,0,0,1-30.595.072,16.239,16.239,0,0,1,7.441-18.147,15.587,15.587,0,0,1,17.236,1.021c1.837,1.381,3.943,1.569,4.837.844,2.034-1.65-.988-2.66-2.141-3.017-4.743-1.467-12.668-4.69-17.859-8.588-3.5-2.627-5.758-5.562-4.962-8.47.71-2.588,3.222-2.093,6.732-1.274a31.128,31.128,0,0,0,9.76,1.2Zm39.69,14.1,8.631,1.318-13.09,1.612,9.494.879L201.93,294.93l8.559.659-10.645,2.344,7.624.879-14.313,2.271,13.234.806-18.2,2.93,17.478.293-18.557,2.93,16.543,1.759-11.8,1.758c6.4,1.393,10.074,1.467,12.29.609,2.68-1.038,3.234-3.441,3.909-6.522.655-2.991,1.43-6.622,4.377-10.267a25.824,25.824,0,0,1,7.474-6.091,20.621,20.621,0,0,0-4.942-.833,45.127,45.127,0,0,0-7.357.247ZM192.47,298.32a44.678,44.678,0,0,0,7.4-7.519c2.483-3.475,2.974-6.565.762-9.478-1.35-1.778-3.709-3.491-7.236-5.185a14.757,14.757,0,0,1,6.881-3.4c4.611-.881,8.847.681,11.6,1.531,1.5.463,2.569.715,3.01.237s-.427-1.48-2.089-2.624a32.371,32.371,0,0,0-11.165-4.576c-3.751-.752-7.656-.734-10.775.88a10.8,10.8,0,0,0-5.34,6.777,52,52,0,0,1,8.814,3.184c5.088,2.528,7.02,5.59,5.412,10.024-1.007,2.775-3.4,6.088-7.278,10.145Zm39.383-.333a8.935,8.935,0,0,1,10.453,5.846,9.194,9.194,0,0,1-4.5,11.247,8.87,8.87,0,0,1-11.487-3.265,9.244,9.244,0,0,1,1.867-12,10.275,10.275,0,0,0-2.321,13.386,9.864,9.864,0,0,0,12.834,3.731,10.225,10.225,0,0,0,4.966-12.618,9.928,9.928,0,0,0-11.81-6.331Zm-62.616,2.02a9.751,9.751,0,0,0-12.559-1.593,10.168,10.168,0,0,0-3.8,12.3,9.845,9.845,0,0,0,11.191,6.019A10.031,10.031,0,0,0,171.9,306.6a9.084,9.084,0,0,1-7.273,8.862,8.93,8.93,0,0,1-9.975-5.494,9.222,9.222,0,0,1,3.3-11.051A8.838,8.838,0,0,1,169.236,300.007Z" transform="translate(-25.611 4.475)"/><text class="b" transform="translate(172.12 381.621)"><tspan x="-115.304" y="0">Riders Meeting</tspan></text><text class="c" transform="translate(79.55 417.678)"><tspan x="0" y="0">ENJOY YOUR TOURING</tspan></text></g></g></svg>